# xmcd
#
# Track frame offsets:
#	150
#	13702
#	26644
#	40426
#	55233
#	68835
#	82689
#	97472
#	110277
#	123261
#	138124
#	151986
#	165336
#	179703
#	193582
#	206146
#	220157
#	233692
#	247505
#	260498
#	275091
#	288079
#	301612
#	315879
#
# Disc length: 4409 seconds
#
# Revision: 3
# Processed by: cddbd v1.4PL0 Copyright (c) Steve Scherf et al.
# Submitted via: CDmax 1.9
#
DISCID=42113718
DTITLE=Memphis Minnie - Picking the blues
DYEAR=2000
DGENRE=Blues
TTITLE0=Ice man
TTITLE1=Frankie Jean
TTITLE2=Banana man blues
TTITLE3=You see my rooster
TTITLE4=New dirty dozen
TTITLE5=Jockey man blues
TTITLE6=Bothering that thing
TTITLE7=Squat it
TTITLE8=Frisco town
TTITLE9=Chickasaw train blues
TTITLE10=Pickin' the blues
TTITLE11=Weary woman blues
TTITLE12=When the levee breaks
TTITLE13=Hoodoo lady
TTITLE14=Pile driving blues
TTITLE15=Moaning the blues
TTITLE16=My butcher man
TTITLE17=I'm a bad luck woman
TTITLE18=New bumble bee
TTITLE19=Hole in the wall
TTITLE20=Drunken barrel house blues
TTITLE21=My strange man
TTITLE22=Let's go to town
TTITLE23=Reachin' Pete
EXTD=
EXTT0=(Minnie)
EXTT1=(Minnie)
EXTT2=(Minnie)
EXTT3=(Minnie)
EXTT4=(Traditional)
EXTT5=(Minnie)
EXTT6=(McCoy)
EXTT7=(Minnie)
EXTT8=(McCoy/Minnie)
EXTT9=(Minnie)
EXTT10=(Minnie)
EXTT11=(Minnie)
EXTT12=(Minnie)
EXTT13=(Minnie)
EXTT14=(McCoy)
EXTT15=(Minnie)
EXTT16=(Minnie)
EXTT17=(Minnie)
EXTT18=(Minnie)
EXTT19=
EXTT20=(Minnie)
EXTT21=(Minnie)
EXTT22=(Minnie)
EXTT23=(Minnie)
PLAYORDER=
